<?xml version="1.0" encoding="UTF-8"?>
<svg id="Layer_1" xmlns="http://www.w3.org/2000/svg" viewBox="0 0 500 100">
  <defs>
    <style>
      .cls-1, .cls-2 {
        fill: #b1b1b1;
      }

      .cls-1, .cls-3 {
        fill-rule: evenodd;
      }

      .cls-4 {
        fill: #fff;
      }

      .cls-3, .cls-5 {
        fill: #ff5100;
      }
    </style>
  </defs>
  <rect class="cls-5" x="154.91" y="37.24" width="4.05" height="18.48"/>
  <rect class="cls-5" x="133.52" y="58.69" width="25.44" height="4.07"/>
  <path class="cls-3" d="M148.13,37.24h-10.93c-1.96.15-3.53,1.72-3.68,3.69v14.8h4.04v-14.44h3.1v14.44h4.03v-14.44s3.09,0,3.09,0v14.44h4.03v-14.77c-.15-1.98-1.71-3.56-3.68-3.71"/>
  <polygon class="cls-2" points="181.88 64.16 167.78 50 181.88 35.84 181.88 29.04 161.02 50 181.88 70.96 181.88 64.16"/>
  <polygon class="cls-2" points="181.88 53.9 178.01 50 181.88 46.1 181.88 39.31 171.24 50 181.88 60.69 181.88 53.9"/>
  <polygon class="cls-2" points="142.49 85.71 146.17 82.02 149.85 85.71 156.61 85.71 146.17 75.23 135.73 85.71 142.49 85.71"/>
  <polygon class="cls-2" points="132.06 85.71 146.17 71.55 160.27 85.71 167.04 85.71 146.17 64.75 125.3 85.71 132.06 85.71"/>
  <polygon class="cls-2" points="160.26 14.29 146.17 28.44 132.07 14.29 125.31 14.29 146.17 35.24 167.02 14.29 160.26 14.29"/>
  <polygon class="cls-2" points="150.04 14.29 146.17 18.18 142.3 14.29 135.54 14.29 146.17 24.97 156.8 14.29 150.04 14.29"/>
  <path class="cls-2" d="M177.02,14.29h-6.4l-4.78,4.79h11.18l.02,11.21,4.79-4.81v-6.37c0-2.66-2.15-4.82-4.81-4.82"/>
  <polygon class="cls-2" points="158.19 26.75 169.42 26.75 169.42 37.91 174.2 33.11 174.2 21.94 162.98 21.94 158.19 26.75"/>
  <polygon class="cls-2" points="150.55 34.41 161.79 34.41 161.79 45.55 166.58 40.76 166.58 29.6 155.34 29.6 150.55 34.41"/>
  <polygon class="cls-2" points="110.45 39.36 110.45 46.16 114.28 50 110.45 53.84 110.45 60.63 121.04 50 110.45 39.36"/>
  <polygon class="cls-2" points="110.45 29.1 110.45 35.89 124.5 50 110.45 64.11 110.45 70.9 131.26 50 110.45 29.1"/>
  <polygon class="cls-2" points="155.33 70.4 166.63 70.4 166.63 59.18 161.85 54.39 161.85 65.59 150.54 65.59 155.33 70.4"/>
  <path class="cls-2" d="M177.1,69.67v11.22l-11.29.02,4.79,4.81h6.47c2.66,0,4.81-2.16,4.81-4.82v-6.43l-4.78-4.79Z"/>
  <polygon class="cls-2" points="162.97 78.06 174.26 78.06 174.26 66.83 169.48 62.04 169.48 73.25 158.18 73.25 162.97 78.06"/>
  <path class="cls-2" d="M115.25,69.45l-4.79,4.81v6.63c0,2.66,2.15,4.82,4.81,4.82h6.46l4.78-4.79h-11.24l-.02-11.46Z"/>
  <polygon class="cls-2" points="130.64 45.65 130.64 34.4 141.83 34.4 137.04 29.6 125.85 29.6 125.85 40.86 130.64 45.65"/>
  <polygon class="cls-2" points="123.01 38.01 123.01 26.75 134.19 26.75 129.4 21.94 118.23 21.94 118.23 33.21 123.01 38.01"/>
  <path class="cls-2" d="M115.24,30.36v-11.25l11.28-.02-4.79-4.81h-6.46c-2.66,0-4.81,2.16-4.81,4.82v6.46l4.78,4.79Z"/>
  <polygon class="cls-2" points="130.64 65.59 130.64 54.18 125.85 58.97 125.85 70.4 137.01 70.4 141.8 65.59 130.64 65.59"/>
  <polygon class="cls-2" points="123.01 61.82 118.23 66.62 118.23 78.06 129.37 78.06 134.16 73.25 123.01 73.25 123.01 61.82"/>
  <path class="cls-5" d="M260.4,19.11c0-2.66-2.15-4.82-4.81-4.82h-26.97l-3.87,3.89-3.87-3.89h-27.03c-2.66,0-4.81,2.16-4.81,4.82v27.05l3.83,3.84-3.83,3.84v27.05c0,2.66,2.15,4.82,4.81,4.82h27.23l3.68-3.7,3.68,3.7h27.23c2.66,0,4.81-2.16,4.81-4.82v-27l-3.88-3.89,3.88-3.9-.06-27Z"/>
  <path class="cls-4" d="M230.69,28.57h-27.38v7.14h27.38c4.6,0,8.33,3.73,8.33,8.33v27.38h7.14v-27.38c0-8.55-6.93-15.48-15.48-15.48"/>
  <path class="cls-4" d="M234.26,44.05v27.38h-7.14v-27.38c0-1.28-.29-2.49-.8-3.57h4.37c1.97,0,3.57,1.6,3.57,3.57"/>
  <path class="cls-4" d="M222.36,44.05v27.38h-7.14v-27.61c-.04-1.19-.32-2.33-.8-3.34h4.37c1.97,0,3.57,1.6,3.57,3.57"/>
  <path class="cls-4" d="M210.45,44.05v27.38h-7.14v-30.95h3.57c1.97,0,3.57,1.6,3.57,3.57"/>
  <polygon class="cls-2" points="280.79 42.86 292.87 42.86 292.87 45.05 287.93 45.05 287.93 57.14 285.73 57.14 285.73 45.05 280.79 45.05 280.79 42.86"/>
  <path class="cls-2" d="M322.3,42.86c1.19,0,2.27.51,3.02,1.32.75-.81,1.83-1.32,3.02-1.32h1.1c2.28,0,4.12,1.84,4.12,4.12v10.17h-2.2v-10.17c0-1.06-.86-1.92-1.92-1.92h-1.1c-1.05,0-1.9.83-1.92,1.87v10.22h-2.2v-10.22c-.03-1.04-.88-1.87-1.92-1.87h-1.1c-1.06,0-1.92.86-1.92,1.92v10.17h-2.2v-14.29h2.2v.47c.57-.3,1.23-.47,1.92-.47h1.1Z"/>
  <polygon class="cls-2" points="348.94 42.86 361.03 42.86 361.03 45.05 356.09 45.05 356.09 57.14 353.89 57.14 353.89 45.05 348.94 45.05 348.94 42.86"/>
  <path class="cls-2" d="M337.96,48.9h4.94v2.2h-4.94v1.92c0,1.06.86,1.92,1.92,1.92h3.85c1.06,0,1.92-.86,1.92-1.92h2.2c0,2.28-1.84,4.12-4.12,4.12h-3.85c-2.28,0-4.12-1.85-4.12-4.12v-6.04c0-2.28,1.85-4.12,4.12-4.12h3.85c2.28,0,4.12,1.84,4.12,4.12h-2.2c0-1.06-.86-1.92-1.92-1.92h-3.85c-1.06,0-1.92.86-1.92,1.92v1.92Z"/>
  <path class="cls-2" d="M365.37,45.05v3.85h5.77c1.06,0,1.92-.86,1.92-1.92s-.86-1.92-1.92-1.92h-5.77ZM371.14,42.86c2.28,0,4.12,1.84,4.12,4.12,0,1.19-.51,2.27-1.32,3.02.81.75,1.32,1.83,1.32,3.02v4.12h-2.2v-4.12c0-1.06-.86-1.92-1.92-1.92h-5.77v6.04h-2.2v-14.29h7.97Z"/>
  <path class="cls-1" d="M275.58,48.9c2.28,0,4.11,1.84,4.11,4.12s-1.83,4.12-4.11,4.12h-3.86c-2.28,0-4.12-1.85-4.12-4.12h2.2c0,1.06.86,1.92,1.92,1.92h3.86c1.06,0,1.91-.86,1.91-1.92s-.85-1.92-1.91-1.92h-3.86c-2.28,0-4.12-1.85-4.12-4.12s1.84-4.12,4.12-4.12h3.86c2.28,0,4.11,1.85,4.11,4.12h-2.2c0-1.06-.85-1.92-1.91-1.92h-3.86c-1.06,0-1.92.86-1.92,1.92s.86,1.92,1.92,1.92h3.86Z"/>
  <path class="cls-1" d="M306.06,53.02c0,2.28-1.83,4.12-4.11,4.12h-3.86c-2.28,0-4.12-1.84-4.12-4.12v-6.04c0-2.28,1.84-4.12,4.12-4.12h3.86c2.28,0,4.11,1.84,4.11,4.12h-2.2c0-1.06-.85-1.92-1.91-1.92h-3.86c-1.06,0-1.92.86-1.92,1.92v6.04c0,1.06.86,1.92,1.92,1.92h3.86c1.06,0,1.91-.86,1.91-1.92h2.2Z"/>
  <path class="cls-2" d="M385.42,45.05h-3.85c-1.06,0-1.92.86-1.92,1.92v6.04c0,1.06.86,1.92,1.92,1.92h3.85c1.06,0,1.92-.86,1.92-1.92v-6.04c0-1.06-.86-1.92-1.92-1.92M377.46,46.98c0-2.28,1.85-4.12,4.12-4.12h3.85c2.28,0,4.12,1.84,4.12,4.12v6.04c0,2.28-1.85,4.12-4.12,4.12h-3.85c-2.27,0-4.12-1.84-4.12-4.12v-6.04Z"/>
</svg>